HIERARCHY
ROOT Hips
{
	OFFSET 0.000000 0.000000 0.000000
	CHANNELS 6 Xposition Yposition Zposition Xrotation Yrotation Zrotation
	JOINT LeftUpLeg_virtual
	{
		OFFSET 0.000000 0.000000 0.000000
		CHANNELS 3 Xrotation Yrotation Zrotation
		JOINT LeftUpLeg
		{
			OFFSET 15.427100 -6.655098 0.678600
			CHANNELS 3 Xrotation Yrotation Zrotation
			JOINT LeftLeg
			{
				OFFSET 4.081073 -39.591068 13.024000
				CHANNELS 3 Xrotation Yrotation Zrotation
				JOINT LeftFoot
				{
					OFFSET -4.081074 -37.707932 -15.979700
					CHANNELS 3 Xrotation Yrotation Zrotation
					JOINT LeftToeBase
					{
						OFFSET 5.346399 -15.068900 20.645000
						CHANNELS 3 Xrotation Yrotation Zrotation
						JOINT LeftToe_End
						{
							OFFSET 2.754700 0.931300 11.300900
							CHANNELS 3 Xrotation Yrotation Zrotation
							End Site
							{
								OFFSET 0 0 0
							}
						}
					}
				}
			}
		}
	}
	JOINT RightUpLeg_virtual
	{
		OFFSET 0.000000 0.000000 0.000000
		CHANNELS 3 Xrotation Yrotation Zrotation
		JOINT RightUpLeg
		{
			OFFSET -15.569500 -6.655098 0.678600
			CHANNELS 3 Xrotation Yrotation Zrotation
			JOINT RightLeg
			{
				OFFSET -4.081825 -39.591045 13.023800
				CHANNELS 3 Xrotation Yrotation Zrotation
				JOINT RightFoot
				{
					OFFSET 4.081824 -37.707954 -15.979600
					CHANNELS 3 Xrotation Yrotation Zrotation
					JOINT RightToeBase
					{
						OFFSET -5.346400 -15.068900 20.645000
						CHANNELS 3 Xrotation Yrotation Zrotation
						JOINT RightToe_End
						{
							OFFSET -2.754700 0.931300 11.300900
							CHANNELS 3 Xrotation Yrotation Zrotation
							End Site
							{
								OFFSET 0 0 0
							}
						}
					}
				}
			}
		}
	}
	JOINT Spine_virtual
	{
		OFFSET 0.000000 0.000000 0.000000
		CHANNELS 3 Xrotation Yrotation Zrotation
		JOINT Spine
		{
			OFFSET -0.279200 12.230698 -2.892100
			CHANNELS 3 Xrotation Yrotation Zrotation
			JOINT Spine1
			{
				OFFSET -0.232667 10.192268 -1.242267
				CHANNELS 3 Xrotation Yrotation Zrotation
				JOINT Spine1_split
				{
					OFFSET -0.232667 10.192268 -1.242267
					CHANNELS 3 Xrotation Yrotation Zrotation
					JOINT Spine2
					{
						OFFSET -0.232667 10.192268 -1.242267
						CHANNELS 3 Xrotation Yrotation Zrotation
						JOINT Neck_virtual
						{
							OFFSET 0.000000 0.000000 0.000000
							CHANNELS 3 Xrotation Yrotation Zrotation
							JOINT Neck
							{
								OFFSET -0.418800 17.814194 8.416900
								CHANNELS 3 Xrotation Yrotation Zrotation
								JOINT Head
								{
									OFFSET 0.000000 7.031097 3.806800
									CHANNELS 3 Xrotation Yrotation Zrotation
									JOINT HeadTop_End
									{
										OFFSET 0.000000 24.646606 12.978600
										CHANNELS 3 Xrotation Yrotation Zrotation
										End Site
										{
											OFFSET 0 0 0
										}
									}
								}
							}
						}
						JOINT LeftShoulder_virtual
						{
							OFFSET 0.000000 0.000000 0.000000
							CHANNELS 3 Xrotation Yrotation Zrotation
							JOINT LeftShoulder
							{
								OFFSET 8.476499 7.247704 -3.868750
								CHANNELS 3 Xrotation Yrotation Zrotation
								JOINT LeftShoulder_split
								{
									OFFSET 8.476499 7.247704 -3.868750
									CHANNELS 3 Xrotation Yrotation Zrotation
									JOINT LeftArm
									{
										OFFSET 9.308998 -2.777710 0.208600
										CHANNELS 3 Xrotation Yrotation Zrotation
										JOINT LeftForeArm
										{
											OFFSET 29.972298 0.000000 0.000000
											CHANNELS 3 Xrotation Yrotation Zrotation
											JOINT LeftHand
											{
												OFFSET 26.026505 0.000000 0.000000
												CHANNELS 3 Xrotation Yrotation Zrotation
												End Site
												{
													OFFSET 0 0 0
												}
											}
										}
									}
								}
							}
						}
						JOINT RightShoulder_virtual
						{
							OFFSET 0.000000 0.000000 0.000000
							CHANNELS 3 Xrotation Yrotation Zrotation
							JOINT RightShoulder
							{
								OFFSET -7.570500 7.247704 -3.868750
								CHANNELS 3 Xrotation Yrotation Zrotation
								JOINT RightShoulder_split
								{
									OFFSET -7.570500 7.247704 -3.868750
									CHANNELS 3 Xrotation Yrotation Zrotation
									JOINT RightArm
									{
										OFFSET -9.308998 -2.777710 0.208500
										CHANNELS 3 Xrotation Yrotation Zrotation
										JOINT RightForeArm
										{
											OFFSET -29.972300 0.000000 0.000000
											CHANNELS 3 Xrotation Yrotation Zrotation
											JOINT RightHand
											{
												OFFSET -26.026505 0.000000 0.000000
												CHANNELS 3 Xrotation Yrotation Zrotation
												End Site
												{
													OFFSET 0 0 0
												}
											}
										}
									}
								}
							}
						}
					}
				}
			}
		}
	}
}
MOTION
Frames: 6
Frame Time: 0.03333333
-1.642111 89.842773 0.730598 0.000000 0.000000 0.000000 -50.230222 -83.008969 -48.137363 -8.646145 16.190390 9.183160 23.988673 -0.691737 1.308004 -8.368143 3.083647 -7.204081 -3.651905 -0.716422 -0.731843 0.000000 0.000000 0.000000 -36.610821 -82.595702 -35.575839 -3.981343 -24.181446 -5.563048 22.687940 8.245274 -11.866841 -9.116135 -1.179684 9.030284 2.376734 0.313298 0.626106 0.000000 0.000000 0.000000 -50.418660 -81.915388 -49.178643 3.946542 0.625174 2.031248 3.670502 0.254093 1.925129 0.563372 5.851836 -0.555063 0.000000 0.000000 0.000000 3.774497 -0.277477 1.552845 -6.487779 6.727658 -3.247944 5.439018 36.074047 -3.091126 0.000000 0.000000 0.000000 5.315977 0.288953 1.631667 0.791470 5.093938 0.286194 -0.881620 0.428171 -0.601578 8.628968 -80.430259 -54.473566 -1.973181 -23.577574 -0.418675 0.000000 0.000000 0.000000 6.431482 0.845009 1.121898 1.181521 3.589998 7.497058 2.931842 3.839762 -0.465611 13.608300 27.956369 59.333157 1.193690 30.890596 0.072651 0.000000 0.000000 0.000000 
-1.495041 89.790512 0.749817 0.000000 0.000000 0.000000 -50.993475 -83.059205 -48.876851 -8.545038 16.067540 9.142449 24.335056 -1.040517 1.407694 -8.584666 2.959521 -7.323565 -3.533355 -0.672162 -0.803950 0.000000 0.000000 0.000000 -35.530156 -82.350833 -34.503746 -4.000963 -24.074612 -5.563905 22.640067 8.122022 -11.879438 -8.903242 -1.335392 8.798401 2.476167 0.294303 0.679908 0.000000 0.000000 0.000000 -50.333576 -81.833958 -49.173421 3.948105 0.478699 2.079524 3.635744 0.233368 1.935698 0.723963 4.621995 -0.257118 0.000000 0.000000 0.000000 3.743223 -0.240767 1.586970 -6.652998 6.648361 -3.259806 5.386259 35.876019 -3.224711 0.000000 0.000000 0.000000 5.312875 0.284191 1.685520 0.759346 4.922591 0.221285 -0.875299 0.484310 -0.333180 11.477208 -80.503915 -51.829121 -2.244832 -23.839017 -0.771352 0.000000 0.000000 0.000000 6.453062 0.876141 1.209337 1.281881 3.375546 7.370409 2.994023 3.826488 -0.620798 13.778216 28.018896 59.095978 1.228055 31.668841 -0.094697 0.000000 0.000000 0.000000 
-1.308892 89.761551 0.690437 0.000000 0.000000 0.000000 -52.035496 -83.071821 -49.926415 -8.539640 16.136279 9.087009 24.831670 -1.443913 1.647299 -8.887831 2.664372 -7.632155 -3.417503 -0.576926 -0.832662 0.000000 0.000000 0.000000 -35.661756 -82.016994 -34.596851 -3.932584 -23.959494 -5.554281 22.789039 8.146151 -11.933866 -8.654792 -1.361666 9.077590 2.132446 0.244358 0.568258 0.000000 0.000000 0.000000 -50.417840 -81.777630 -49.301292 4.061409 0.180212 2.210490 3.611784 0.140545 1.938337 0.748260 3.637114 -0.099987 0.000000 0.000000 0.000000 3.800819 -0.281536 1.665435 -6.916067 6.690473 -3.398880 5.242949 35.943341 -3.438406 0.000000 0.000000 0.000000 5.408864 0.206022 1.753943 0.762679 4.831457 0.164486 -0.817034 0.953658 -0.437563 16.620041 -80.498704 -47.121216 -2.356895 -24.440271 -1.092305 0.000000 0.000000 0.000000 6.447241 0.802475 1.321155 1.404632 3.104630 7.115691 3.088426 4.092713 -0.593984 13.913752 27.887406 59.171759 1.244551 33.203138 -0.249345 0.000000 0.000000 0.000000 
-1.075377 89.733032 0.570057 0.000000 0.000000 0.000000 -52.662903 -83.011578 -50.545975 -8.627092 16.532519 8.982734 25.208746 -1.734776 1.959570 -9.313056 2.284244 -7.956389 -3.298313 -0.460850 -0.812148 0.000000 0.000000 0.000000 -36.569086 -81.743294 -35.427443 -3.827751 -23.718812 -5.594043 23.062474 8.339693 -12.006933 -8.535137 -1.209347 9.731241 1.711968 0.195100 0.343075 0.000000 0.000000 0.000000 -50.972404 -81.795914 -49.812409 4.244653 -0.197129 2.338885 3.598716 0.048091 1.930635 0.778462 2.972066 -0.172337 0.000000 0.000000 0.000000 3.925099 -0.354639 1.756425 -7.174012 6.816783 -3.653902 4.994455 36.201908 -3.700690 0.000000 0.000000 0.000000 5.549852 0.115439 1.829021 0.786896 4.829665 0.118689 -0.786837 1.538395 -0.744526 22.682290 -80.428927 -41.551627 -2.250869 -24.957564 -1.306624 0.000000 0.000000 0.000000 6.420813 0.689053 1.428439 1.509536 2.896236 6.839815 3.262261 4.570816 -0.498965 13.866159 27.589007 59.534039 1.232791 34.883620 -0.373499 0.000000 0.000000 0.000000 
-0.815404 89.736664 0.414680 0.000000 0.000000 0.000000 -53.312160 -83.023518 -51.132234 -8.728662 17.177337 8.799920 25.292766 -1.887794 2.312559 -9.743784 1.880290 -8.307560 -3.274236 -0.328850 -0.710288 0.000000 0.000000 0.000000 -37.564288 -81.666810 -36.301544 -3.580800 -23.283177 -5.656041 23.199265 8.660670 -12.130010 -8.739419 -0.968724 10.279731 1.715120 0.179822 0.094753 0.000000 0.000000 0.000000 -52.714748 -81.978403 -51.401169 4.435357 -0.552420 2.337740 3.606036 0.033912 1.919644 0.997830 2.704818 -0.294737 0.000000 0.000000 0.000000 4.086392 -0.381227 1.828991 -7.308113 7.016775 -3.929671 4.637599 36.644942 -4.016643 0.000000 0.000000 0.000000 5.676849 0.092518 1.894118 0.815193 4.889662 0.036966 -0.888009 1.828661 -1.155926 27.519577 -80.289038 -37.025673 -1.853709 -25.245860 -1.329724 0.000000 0.000000 0.000000 6.379332 0.612395 1.510779 1.578741 2.785194 6.716448 3.349752 5.108869 -0.460480 13.468307 27.109277 60.130943 1.191710 36.258476 -0.451636 0.000000 0.000000 0.000000 
-0.561898 89.779755 0.253704 0.000000 0.000000 0.000000 -53.614400 -83.200467 -51.313958 -8.893653 17.892124 8.577619 25.109042 -1.908345 2.720710 -10.008627 1.499463 -8.592981 -3.318030 -0.200001 -0.469093 0.000000 0.000000 0.000000 -37.960375 -81.860541 -36.547229 -3.396389 -22.612579 -5.775270 23.089572 8.997310 -12.287421 -9.130592 -0.798650 10.451828 2.044828 0.212737 -0.103730 0.000000 0.000000 0.000000 -55.910539 -82.277524 -54.332287 4.563518 -0.794717 2.131617 3.639157 0.162663 1.899688 1.119981 2.935087 -0.258310 0.000000 0.000000 0.000000 4.256980 -0.294986 1.847385 -7.236886 7.268148 -4.188044 4.132638 37.139393 -4.367817 0.000000 0.000000 0.000000 5.730176 0.199189 1.928834 0.831768 4.945714 -0.123504 -1.025438 1.700953 -1.494826 29.549068 -80.052617 -34.951765 -1.188097 -25.349959 -1.137630 0.000000 0.000000 0.000000 6.325319 0.660153 1.541681 1.611006 2.812717 6.819585 3.407746 5.519714 -0.359708 12.664158 26.458138 60.828517 1.101869 37.146028 -0.466272 0.000000 0.000000 0.000000 
